<svg width="24" height="24" viewBox="0 0 24 24" fill="none" xmlns="http://www.w3.org/2000/svg">
<path d="M20 14.5V6.5C20 4.614 20 3.672 19.414 3.086C18.828 2.5 17.886 2.5 16 2.5H8C6.114 2.5 5.172 2.5 4.586 3.086C4 3.672 4 4.614 4 6.5V14.5" stroke="#305AFF" stroke-width="1.5" stroke-linecap="round" stroke-linejoin="round"/>
<path d="M8.00029 8.394H8.16229C8.97329 8.394 9.37929 8.394 9.68929 8.568C9.99929 8.742 10.1373 9.048 10.4163 9.661L10.7523 10.401C10.9353 10.805 11.0273 11.006 11.1753 11C11.3233 10.994 11.3873 10.786 11.5163 10.37L12.6733 6.647C12.8063 6.219 12.8733 6.005 13.0223 6C13.1713 5.995 13.2613 6.203 13.4393 6.62L13.6423 7.093C13.9123 7.721 14.0463 8.035 14.3593 8.214C14.6723 8.393 15.0853 8.394 15.9113 8.394H16.0003M3.49829 15.515L4.02029 14.5H19.9523L20.5023 15.515C21.9453 18.177 22.3053 19.508 21.7563 20.504C21.2073 21.5 19.7543 21.5 16.8463 21.5H7.15429C4.24529 21.5 2.79129 21.5 2.24329 20.504C1.69429 19.508 2.05429 18.177 3.49829 15.515Z" stroke="#305AFF" stroke-width="1.5" stroke-linecap="round" stroke-linejoin="round"/>
</svg>
